HIERARCHY
ROOT RootJoint
{
    OFFSET   0.000000   0.000000   0.000000
    CHANNELS 6 Xposition Yposition Zposition Xrotation Yrotation Zrotation
    JOINT pelvis_lowerback
    {
        OFFSET   0.000000   0.093605   0.000000
        CHANNELS 3 Xrotation Yrotation Zrotation
        JOINT lowerback_torso
        {
            OFFSET   0.000000   0.100000   0.000000
            CHANNELS 3 Xrotation Yrotation Zrotation
            JOINT torso_head
            {
                OFFSET   0.000000   0.282350   0.000000
                CHANNELS 3 Xrotation Yrotation Zrotation
                End Site
                {
                    OFFSET   0.000000   0.192650   0.000000
                }
            }
            JOINT rTorso_Clavicle
            {
                OFFSET  -0.001000   0.157500   0.000000
                CHANNELS 3 Xrotation Yrotation Zrotation
                JOINT rShoulder
                {
                    OFFSET  -0.117647   0.000000   0.000000
                    CHANNELS 3 Xrotation Yrotation Zrotation
                    JOINT rElbow
                    {
                        OFFSET  -0.245000   0.000000   0.000000
                        CHANNELS 3 Xrotation Yrotation Zrotation
                        JOINT rWrist
                        {
                            OFFSET  -0.240000   0.000000   0.000000
                            CHANNELS 3 Xrotation Yrotation Zrotation
                            End Site
                            {
                                OFFSET  -0.116353  -0.002500   0.000000
                            }
                        }
                    }
                }
            }
            JOINT lTorso_Clavicle
            {
                OFFSET   0.001000   0.157500   0.000000
                CHANNELS 3 Xrotation Yrotation Zrotation
                JOINT lShoulder
                {
                    OFFSET   0.117647   0.000000   0.000000
                    CHANNELS 3 Xrotation Yrotation Zrotation
                    JOINT lElbow
                    {
                        OFFSET   0.245000   0.000000   0.000000
                        CHANNELS 3 Xrotation Yrotation Zrotation
                        JOINT lWrist
                        {
                            OFFSET   0.240000   0.000000   0.000000
                            CHANNELS 3 Xrotation Yrotation Zrotation
                            End Site
                            {
                                OFFSET   0.116353  -0.002500   0.000000
                            }
                        }
                    }
                }
            }
        }
    }
    JOINT rHip
    {
        OFFSET  -0.100000  -0.051395   0.000000
        CHANNELS 3 Xrotation Yrotation Zrotation
        JOINT rKnee
        {
            OFFSET   0.000000  -0.410000   0.000000
            CHANNELS 3 Xrotation Yrotation Zrotation
            JOINT rAnkle
            {
                OFFSET   0.000000  -0.390000   0.000000
                CHANNELS 3 Xrotation Yrotation Zrotation
                JOINT rToeJoint
                {
                    OFFSET   0.000000  -0.050000   0.130000
                    CHANNELS 3 Xrotation Yrotation Zrotation
                    End Site
                    {
                        OFFSET  -0.010000   0.002000   0.060000
                    }
                }
            }
        }
    }
    JOINT lHip
    {
        OFFSET   0.100000  -0.051395   0.000000
        CHANNELS 3 Xrotation Yrotation Zrotation
        JOINT lKnee
        {
            OFFSET   0.000000  -0.410000   0.000000
            CHANNELS 3 Xrotation Yrotation Zrotation
            JOINT lAnkle
            {
                OFFSET   0.000000  -0.390000   0.000000
                CHANNELS 3 Xrotation Yrotation Zrotation
                JOINT lToeJoint
                {
                    OFFSET   0.000000  -0.050000   0.130000
                    CHANNELS 3 Xrotation Yrotation Zrotation
                    End Site
                    {
                        OFFSET   0.010000   0.002000   0.060000
                    }
                }
            }
        }
    }
}
MOTION
Frames: 14
Frame Time:   0.008333
 -1.287447   0.900135   4.764862  79.989265 -85.958578  85.903953  -0.643537   1.074062  -2.474213  -2.479886  -0.312665   0.151015   0.492228  -0.474674  -0.333722  -0.884781  -0.111173   3.554736 -16.446373   1.601175  25.821298  -0.031309  67.822249   0.023813   2.139310   5.810611 -24.407414  -3.332623   0.700868  -2.614330 -21.753161   2.104407 -25.041237  -0.085886 -74.199955  -0.073338  -2.211099  -7.334430  27.712421  -1.900333  -1.309720  -8.044266  30.614045   0.000799  -0.001637 -20.872615  -7.272101   0.161867  -2.738295   0.006848  -0.005296 -14.909330   1.825853  -5.291561  19.568030  -0.000560  -0.000334  -8.433686   9.607846   2.674215  -0.489380   0.000178   0.000020
 -1.283593   0.899860   4.763293  81.217289 -85.967686  87.092691  -0.661074   1.102968  -2.396609  -2.588521  -0.280328   0.129037   0.405903  -0.487302  -0.418674  -1.037348   0.012108   3.378182 -16.937379   1.656936  25.320586  -0.031617  68.158952   0.024053   2.019468   5.863029 -24.118696  -3.552471   0.770737  -2.361852 -22.449575   2.239398 -24.522615  -0.086199 -74.621923  -0.073907  -2.268835  -7.356538  27.455646  -1.724676  -1.285628  -7.930174  29.811000   0.001223  -0.001325 -21.092703  -7.073455   0.161415  -3.207612   0.006288  -0.004877 -15.285029   1.828929  -5.124578  19.770674  -0.000674  -0.000382  -8.254866   9.692143   2.529635  -0.423126   0.000159   0.000016
 -1.279688   0.899574   4.761654  82.480554 -85.972203  88.320620  -0.663189   1.130328  -2.325012  -2.699904  -0.245484   0.107714   0.326455  -0.500247  -0.501195  -1.201285   0.132931   3.176542 -17.416244   1.721794  24.825655  -0.031540  68.478274   0.023932   1.914118   5.934301 -23.899607  -3.781001   0.838262  -2.082907 -23.124692   2.351970 -24.005880  -0.085563 -75.022474  -0.073499  -2.307297  -7.409393  27.273915  -1.578322  -1.263530  -7.814290  29.042735   0.001599  -0.001036 -21.299018  -6.885428   0.162696  -3.634452   0.005777  -0.004410 -15.657866   1.833520  -4.956509  19.954218  -0.000750  -0.000406  -8.061406   9.774414   2.394103  -0.368216   0.000134   0.000013
 -1.275784   0.899274   4.759951  83.723572 -85.982598  89.534235  -0.658678   1.157989  -2.260172  -2.804968  -0.209915   0.086932   0.255603  -0.512413  -0.578867  -1.364545   0.248914   2.964001 -17.872840   1.791959  24.348850  -0.031012  68.779644   0.023459   1.821324   6.019027 -23.724682  -4.005408   0.899981  -1.795740 -23.766955   2.445279 -23.505889  -0.083831 -75.399885  -0.072088  -2.332025  -7.481749  27.135546  -1.447514  -1.242527  -7.698574  28.314580   0.001910  -0.000796 -21.492103  -6.708451   0.165207  -4.030728   0.005317  -0.003946 -16.013893   1.837723  -4.790467  20.120756  -0.000797  -0.000411  -7.859214   9.853511   2.268722  -0.321624   0.000107   0.000010
 -1.271905   0.898955   4.758188  84.924552 -86.002424  90.712471  -0.651337   1.185365  -2.201532  -2.903143  -0.174811   0.066273   0.191642  -0.523707  -0.651669  -1.522236   0.359168   2.751314 -18.304002   1.864461  23.895608  -0.030100  69.063191   0.022722   1.738060   6.111784 -23.575549  -4.220668   0.956332  -1.512758 -24.372919   2.523553 -23.029544  -0.081180 -75.754494  -0.069884  -2.347923  -7.565162  27.020079  -1.327574  -1.222591  -7.583984  27.630003   0.002154  -0.000608 -21.673800  -6.542006   0.168746  -4.407795   0.004914  -0.003512 -16.349995   1.840630  -4.627740  20.274717  -0.000823  -0.000403  -7.652527   9.928834   2.152550  -0.281310   0.000082   0.000008
 -1.268062   0.898612   4.756367  86.080566 -86.033183  91.853011  -0.643277   1.211958  -2.148732  -2.994847  -0.140831   0.045411   0.133156  -0.534171  -0.719827  -1.671947   0.463317   2.544934 -18.708801   1.937243  23.468401  -0.028892  69.329347   0.021798   1.661984   6.208425 -23.442213  -4.424446   1.008053  -1.241036 -24.941817   2.590158 -22.579962  -0.077823 -76.086994  -0.067090  -2.358277  -7.654012  26.917385  -1.215760  -1.203639  -7.471391  26.989598   0.002335  -0.000466 -21.845895  -6.385499   0.173204  -4.777579   0.004578  -0.003121 -16.665587   1.842029  -4.469288  20.419449  -0.000836  -0.000388  -7.444100  10.000209   2.044701  -0.245675   0.000058   0.000007
 -1.264261   0.898244   4.754493  87.198569 -86.075364  92.963202  -0.635688   1.237493  -2.101421  -3.080586  -0.108305   0.024163   0.079161  -0.543860  -0.783609  -1.812567   0.561239   2.348440 -19.087441   2.008906  23.067923  -0.027473  69.578760   0.020751   1.591455   6.306096 -23.318999  -4.615790   1.055837  -0.984297 -25.474229   2.647643 -22.158131  -0.073963 -76.398290  -0.063883  -2.365243  -7.744612  26.822183  -1.110271  -1.185588  -7.361430  26.392280   0.002462  -0.000363 -22.009960  -6.238369   0.178498  -5.150401   0.004313  -0.002777 -16.961087   1.842026  -4.315710  20.557244  -0.000841  -0.000367  -7.235638  10.067723   1.944414  -0.213454   0.000037   0.000006
 -1.260291   0.897742   4.752542  87.868469 -86.112851  93.608619  -0.566528   1.260146  -2.057558  -3.179452  -0.097328   0.030803  -0.011334  -0.560489  -0.862767  -1.960671   0.671917   2.195546 -19.649348   2.051551  22.511259  -0.026493  69.785347   0.020110   1.482710   6.396374 -23.051762  -4.834376   1.090412  -0.746984 -26.090547   2.653734 -21.642664  -0.066857 -76.590431  -0.057746  -2.383716  -7.853708  26.609845  -1.018171  -1.200747  -7.218411  25.802326   0.002635  -0.000298 -22.103790  -6.116763   0.146461  -5.981172   0.004667  -0.002642 -17.336833   1.788372  -4.151430  20.817479  -0.001017  -0.000449  -7.121259  10.029085   1.809300  -0.078091   0.000032  -0.000143
 -1.256302   0.897187   4.750555  88.967360 -86.151045  94.695911  -0.482878   1.295390  -2.026915  -3.270702  -0.078304   0.034703  -0.091532  -0.575619  -0.936782  -2.123415   0.776124   2.015556 -20.197454   2.101114  21.960405  -0.025393  69.977230   0.019302   1.375180   6.473818 -22.874661  -5.055999   1.125285  -0.488641 -26.684442   2.649503 -21.133147  -0.060235 -76.765013  -0.051975  -2.409020  -7.938899  26.447152  -0.940697  -1.213344  -7.085440  25.233038   0.002826  -0.000123 -22.200176  -6.004704   0.116965  -6.848358   0.005020  -0.002235 -17.711127   1.723465  -4.000089  21.080057  -0.001178  -0.000606  -7.007517   9.977148   1.682443   0.123774   0.000009  -0.000430
 -1.252396   0.896143   4.748478  91.036200 -86.172137  96.688247  -0.421341   1.352283  -1.953485  -3.362663  -0.042224   0.061524  -0.160125  -0.589054  -1.003263  -2.290357   0.877544   1.794817 -20.723070   2.163278  21.419751  -0.024374  70.159704   0.018501   1.274165   6.552501 -22.741438  -5.273715   1.165966  -0.198812 -27.250547   2.635056 -20.632068  -0.054460 -76.931379  -0.046909  -2.432193  -8.021105  26.323119  -0.885541  -1.220610  -6.879072  24.698707   0.003092   0.000251 -22.331530  -5.887491   0.097870  -8.085698   0.006008  -0.001291 -18.000301   1.610083  -3.734664  21.157496  -0.001095  -0.000600  -6.995362   9.915168   1.604702   0.303600  -0.000125  -0.000741
 -1.248415   0.895474   4.746437  91.416284 -86.220668  97.118548  -0.326819   1.354091  -1.977516  -3.444311  -0.042347   0.041441  -0.226941  -0.603276  -1.068639  -2.446423   0.961974   1.618444 -21.214086   2.215989  20.920091  -0.022985  70.330304   0.017445   1.186526   6.643632 -22.659281  -5.481000   1.189952   0.047696 -27.782050   2.613252 -20.170567  -0.048961 -77.085425  -0.042151  -2.443411  -8.119083  26.216230  -0.812316  -1.245527  -6.801120  24.175937   0.003083   0.000158 -22.442177  -5.801468   0.070819  -9.098581   0.006318  -0.001162 -18.396910   1.615581  -3.627447  21.479708  -0.001297  -0.000484  -6.825709   9.936199   1.473687   0.374708  -0.000115  -0.000594
 -1.244639   0.895233   4.744321  92.617647 -86.280412  98.250707  -0.252656   1.382265  -1.891068  -3.511322  -0.029933   0.058804  -0.285006  -0.615263  -1.129761  -2.586791   1.037113   1.460522 -21.667574   2.264544  20.455868  -0.021437  70.485599   0.016331   1.100378   6.725420 -22.567250  -5.662257   1.224911   0.242265 -28.264981   2.603091 -19.758441  -0.043992 -77.232406  -0.037894  -2.448157  -8.225379  26.103291  -0.759055  -1.263769  -6.597808  23.765131   0.003040   0.000239 -22.879586  -5.722138   0.111618  -7.868734   0.002234  -0.001531 -18.685072   1.544718  -3.408099  21.665801  -0.001309  -0.000516  -6.747482   9.889550   1.376275   0.549450  -0.000158  -0.000695
 -1.240996   0.895133   4.742174  94.298042 -86.333829  99.841391  -0.195057   1.416705  -1.803541  -3.578353  -0.011522   0.092325  -0.339715  -0.626197  -1.181586  -2.715599   1.106894   1.309844 -22.088650   2.312427  20.024746  -0.019917  70.630958   0.015232   1.014086   6.796761 -22.471643  -5.830557   1.262906   0.434124 -28.714694   2.593203 -19.369750  -0.039463 -77.368454  -0.034023  -2.457997  -8.317549  25.991247  -0.723757  -1.281417  -6.371992  23.372388   0.003030   0.000391 -23.187074  -5.636003   0.142077  -6.743954  -0.000558  -0.001856 -18.918181   1.453926  -3.169360  21.772265  -0.001209  -0.000519  -6.705368   9.841085   1.298013   0.705287  -0.000203  -0.000802
 -1.237326   0.895097   4.740009  95.819398 -86.419272 101.244566  -0.057858   1.466945  -1.704225  -3.658955  -0.005609   0.141117  -0.430972  -0.653257  -1.237911  -2.854911   1.180495   1.183423 -22.690562   2.298769  19.510031  -0.018779  70.750843   0.014511   0.889378   6.857344 -22.253843  -6.011814   1.248447   0.635238 -29.234824   2.502072 -18.913280  -0.030624 -77.338346  -0.026421  -2.481862  -8.409087  25.786063  -0.704750  -1.297754  -6.101121  23.069996   0.002908   0.000412 -23.385775  -5.650232   0.188515  -5.587561  -0.002953  -0.002912 -19.111811   1.341908  -2.910335  21.873223  -0.001118  -0.000509  -6.746635   9.680494   1.232584   0.796595  -0.000207  -0.000866
